<svg width="44" height="44" viewBox="0 0 44 44" fill="none" xmlns="http://www.w3.org/2000/svg">
<path fill-rule="evenodd" clip-rule="evenodd" d="M9.88165 18.5626L20.2989 8.14541L21.5952 9.44177L11.178 19.859L9.88165 18.5626Z" fill="#999999"/>
<path fill-rule="evenodd" clip-rule="evenodd" d="M13.3384 22.0194L23.7556 11.6022L25.052 12.8986L14.6348 23.3158L13.3384 22.0194Z" fill="#999999"/>
<path fill-rule="evenodd" clip-rule="evenodd" d="M20.6844 29.3655L31.1016 18.9483L32.3979 20.2446L21.9808 30.6618L20.6844 29.3655Z" fill="#999999"/>
<path fill-rule="evenodd" clip-rule="evenodd" d="M24.1414 32.8223L34.5586 22.4051L35.855 23.7014L25.4378 34.1186L24.1414 32.8223Z" fill="#999999"/>
<path fill-rule="evenodd" clip-rule="evenodd" d="M24.1413 32.8225C20.5455 36.4183 14.7286 36.4312 11.1488 32.8514C7.56897 29.2716 7.58192 23.4546 11.1777 19.8589L9.88135 18.5625C5.5664 22.8774 5.55086 29.8578 9.84662 34.1536C14.1424 38.4493 21.1228 38.4338 25.4377 34.1188L24.1413 32.8225Z" fill="#999999"/>
<path fill-rule="evenodd" clip-rule="evenodd" d="M31.1018 18.9483L32.3982 20.2447C35.7542 16.8886 35.7663 11.4594 32.4252 8.11829C29.084 4.77714 23.6549 4.78923 20.2988 8.1453L21.5952 9.44166C24.2321 6.80475 28.4978 6.79525 31.123 9.42044C33.7482 12.0456 33.7387 16.3114 31.1018 18.9483Z" fill="#999999"/>
<path fill-rule="evenodd" clip-rule="evenodd" d="M13.3389 22.0198C10.9417 24.417 10.933 28.2949 13.3196 30.6815C15.7061 33.068 19.5841 33.0594 21.9813 30.6622L20.6849 29.3658C19.0069 31.0439 16.2923 31.0499 14.6217 29.3793C12.9511 27.7088 12.9572 24.9942 14.6352 23.3161L13.3389 22.0198Z" fill="#999999"/>
</svg>
