<svg width="16" height="16" viewBox="0 0 16 16" fill="none" xmlns="http://www.w3.org/2000/svg">
<path d="M2.66699 4H13.3337L12.2803 13.48C12.2442 13.8063 12.089 14.1077 11.8445 14.3267C11.6 14.5456 11.2832 14.6667 10.955 14.6667H5.04566C4.71742 14.6667 4.4007 14.5456 4.15616 14.3267C3.91161 14.1077 3.75643 13.8063 3.72033 13.48L2.66699 4Z" stroke="#545454" stroke-width="1.33333" stroke-linecap="round" stroke-linejoin="round"/>
<path d="M4.89667 2.09804C5.0045 1.86935 5.17514 1.67604 5.38867 1.54065C5.6022 1.40526 5.84983 1.33337 6.10267 1.33337H9.89733C10.1503 1.33324 10.3981 1.40507 10.6117 1.54047C10.8254 1.67587 10.9961 1.86925 11.104 2.09804L12 4.00004H4L4.89667 2.09804Z" stroke="#545454" stroke-width="1.33333" stroke-linecap="round" stroke-linejoin="round"/>
<path d="M1.3335 4H14.6668" stroke="#545454" stroke-width="1.33333" stroke-linecap="round" stroke-linejoin="round"/>
<path d="M6.66699 7.33337V10.6667" stroke="#545454" stroke-width="1.33333" stroke-linecap="round" stroke-linejoin="round"/>
<path d="M9.3335 7.33337V10.6667" stroke="#545454" stroke-width="1.33333" stroke-linecap="round" stroke-linejoin="round"/>
</svg>
